<svg xmlns="http://www.w3.org/2000/svg" width="1200" height="520" viewBox="0 0 1200 520">
  <rect width="1200" height="520" fill="#0b1016"/>
  <rect x="72" y="76" width="280" height="320" rx="28" fill="#121922" stroke="#2d3948" stroke-width="3"/>
  <rect x="394" y="58" width="330" height="360" rx="30" fill="#10151c" stroke="#c9ff3d" stroke-opacity=".65" stroke-width="3"/>
  <rect x="766" y="92" width="300" height="286" rx="28" fill="#121922" stroke="#2d3948" stroke-width="3"/>
  <rect x="100" y="108" width="224" height="126" rx="18" fill="#243244"/>
  <rect x="426" y="94" width="266" height="148" rx="18" fill="#263147"/>
  <rect x="796" y="124" width="240" height="118" rx="18" fill="#243244"/>
  <path d="M128 278h166M128 312h124M128 346h144" stroke="#c5cedb" stroke-width="16" stroke-linecap="round"/>
  <path d="M454 290h204M454 326h158M454 362h118" stroke="#f4f7fb" stroke-width="18" stroke-linecap="round"/>
  <path d="M826 282h168M826 316h108" stroke="#c5cedb" stroke-width="16" stroke-linecap="round"/>
  <path d="M554 34h96c12 0 22 10 22 22v106l-70-34-70 34V56c0-12 10-22 22-22Z" fill="#c9ff3d"/>
  <circle cx="990" cy="118" r="42" fill="#66d9ef" opacity=".9"/>
  <text x="80" y="458" fill="#fff" font-family="Segoe UI, Arial" font-size="58" font-weight="900">ClipDock Saves</text>
  <text x="82" y="496" fill="#9aa7b8" font-family="Segoe UI, Arial" font-size="25" font-weight="700">Guarda publicaciones, videos, pins, tutoriales y paginas web</text>
</svg>
